<mxfile host="Electron" modified="2024-07-29T10:43:54.742Z" agent="Mozilla/5.0 (X11; Linux x86_64) AppleWebKit/537.36 (KHTML, like Gecko) draw.io/24.6.4 Chrome/124.0.6367.207 Electron/30.0.6 Safari/537.36" etag="oQ9wBn6V04wj2AMX2l-q" version="24.6.4" type="device" pages="2">
  <diagram name="usecase" id="J0fEUQ_3-V1suAvQj7rh">
    <mxGraphModel dx="1434" dy="839" grid="1" gridSize="10" guides="1" tooltips="1" connect="1" arrows="1" fold="1" page="1" pageScale="1" pageWidth="827" pageHeight="1169" math="0" shadow="0">
      <root>
        <mxCell id="0" />
        <mxCell id="1" parent="0" />
        <mxCell id="YrgOsLHR2yldfkeucfop-3" style="rounded=0;orthogonalLoop=1;jettySize=auto;html=1;exitX=1;exitY=0.3333333333333333;exitDx=0;exitDy=0;exitPerimeter=0;endArrow=none;endFill=0;" edge="1" parent="1" source="YrgOsLHR2yldfkeucfop-1" target="YrgOsLHR2yldfkeucfop-2">
          <mxGeometry relative="1" as="geometry" />
        </mxCell>
        <mxCell id="YrgOsLHR2yldfkeucfop-1" value="Game&lt;div&gt;Developer&lt;/div&gt;" style="shape=umlActor;verticalLabelPosition=bottom;verticalAlign=top;html=1;" vertex="1" parent="1">
          <mxGeometry x="80" y="360" width="30" height="60" as="geometry" />
        </mxCell>
        <mxCell id="YrgOsLHR2yldfkeucfop-2" value="Include ecosystem simulation in a game" style="ellipse;whiteSpace=wrap;html=1;" vertex="1" parent="1">
          <mxGeometry x="300" y="340" width="140" height="70" as="geometry" />
        </mxCell>
        <mxCell id="YrgOsLHR2yldfkeucfop-4" value="Define species" style="ellipse;whiteSpace=wrap;html=1;" vertex="1" parent="1">
          <mxGeometry x="190" y="500" width="140" height="70" as="geometry" />
        </mxCell>
        <mxCell id="YrgOsLHR2yldfkeucfop-5" value="Define environment" style="ellipse;whiteSpace=wrap;html=1;" vertex="1" parent="1">
          <mxGeometry x="390" y="500" width="140" height="70" as="geometry" />
        </mxCell>
        <mxCell id="YrgOsLHR2yldfkeucfop-6" value="include" style="endArrow=open;endSize=12;dashed=1;html=1;rounded=0;" edge="1" parent="1" source="YrgOsLHR2yldfkeucfop-2" target="YrgOsLHR2yldfkeucfop-4">
          <mxGeometry width="160" relative="1" as="geometry">
            <mxPoint x="330" y="430" as="sourcePoint" />
            <mxPoint x="420" y="470" as="targetPoint" />
          </mxGeometry>
        </mxCell>
        <mxCell id="YrgOsLHR2yldfkeucfop-8" value="include" style="endArrow=open;endSize=12;dashed=1;html=1;rounded=0;" edge="1" parent="1" source="YrgOsLHR2yldfkeucfop-2" target="YrgOsLHR2yldfkeucfop-5">
          <mxGeometry width="160" relative="1" as="geometry">
            <mxPoint x="357" y="418" as="sourcePoint" />
            <mxPoint x="293" y="512" as="targetPoint" />
          </mxGeometry>
        </mxCell>
      </root>
    </mxGraphModel>
  </diagram>
  <diagram id="5-KWJQ_GlBatUTMcYHqk" name="Страница — 2">
    <mxGraphModel dx="1390" dy="795" grid="1" gridSize="10" guides="1" tooltips="1" connect="1" arrows="1" fold="1" page="1" pageScale="1" pageWidth="827" pageHeight="1169" math="0" shadow="0">
      <root>
        <mxCell id="0" />
        <mxCell id="1" parent="0" />
      </root>
    </mxGraphModel>
  </diagram>
</mxfile>
